# xmcd
#
# Track frame offsets:
#	150
#	11764
#	24563
#	36142
#	49345
#	63782
#	75789
#	88944
#	99995
#	111498
#	123758
#	136511
#	148400
#	158730
#	169989
#	182854
#	193654
#	205692
#	218940
#	229551
#	241064
#	252220
#	267887
#	280453
#	289572
#	300613
#	312461
#	325926
#
# Disc length: 4501 seconds
#
# Revision: 1
# Processed by: cddbd v1.5.2PL0 Copyright (c) Steve Scherf et al.
# Submitted via: audiograbber 1.83.01
#
DISCID=8a11931c
DTITLE=Various Artist - Early Vocal Group Harmony - Vol. 2 (1945-1954)
DYEAR=1900
DGENRE=Vocal
TTITLE0=Master Keys - You're Not the Only Apple On the Apple Tree (Top, 1945)
TTITLE1=Claude Hopkins Quartet - Low Gravy (Rainbow, 1947)
TTITLE2=Jubilaires - A Sunday Kind of Love (Queen, 1947)
TTITLE3=Auditones - Near You (Rainbow, 1947)
TTITLE4=Lionel Hampton and the Hamptonians - I Want To Be Loved (Decca, 1947)
TTITLE5=Ronald Burton and the Hamptones - I Miss You So (Decca, 1947)
TTITLE6=Orville Brooks with the Jubalaires - I've Waited All My Life For You (C
TTITLE6=oral, 1948)
TTITLE7=Rockets - Loch Lomond (Aladdin, 1948)
TTITLE8=Jimmie Valentine Quartet - Walking With My Shadow (Varsity, 1948)
TTITLE9=Dinah Washington with Quartet - It's Too Soon To Know (Mercury, 1948)
TTITLE10=Pearl Bailey and the Charioteers - Who (Harmony, 1949, rec. 1947)
TTITLE11=Norfolk Four - Bake That Chicken Pie (Abbey, 1949)
TTITLE12=Tomcats - You Better Get Yourself Some Gold (Capitol, 1949)
TTITLE13=Congo Rhythm Boys - One Way Ticket (Hamptone International, 1950)
TTITLE14=Congo Rhythm Boys - Please Don't Cry (Hamptone International, 1950)
TTITLE15=Ann Nichols and the Bluebird Quartet - Lost In a Fog Over You (Sittin' I
TTITLE15=n With, 1950)
TTITLE16=Four Deals - There Ain't No Bears In the Forest (Capitol, 1950)
TTITLE17=Four Jacks - I Cry My Heart Out (Gotham, 1950)
TTITLE18=Jimmy Sweeney with Choir - The Song Of the Wind (Tennessee, 1950)
TTITLE19=Magichords - If I Didn't Love You Like I Do (Marlow, ca. 1950)
TTITLE20=Teddy Williams and the Federalites - (Take My Money) Take My Love (Feder
TTITLE20=al, 1951)
TTITLE21=Sy Oliver Orchestra (The Tune Timers voc.) - Aboard the Sentimental Tr
TTITLE21=ain (Decca, 1951)
TTITLE22=Helen Foster and the Rovers - You Belong To Me (Republic, 1952)
TTITLE23=Jim Sweeney and the dinning Brothers - (It's) Needless (Tennessee, 1952)
TTITLE24=Kalvin Brothers - Somewhere In Korea (Royal Roost, 1952)
TTITLE25=Little Esther [and vocal group] - Stop Cryin' (Decca, 1953)
TTITLE26=Bobby Shields and the Street Singers - I Was Dreaming (Dawn, 1954)
TTITLE27=Johnny Oliver [and vocal group] - I Must Have Love (MGM, 1954)
EXTD=
EXTT0=
EXTT1=
EXTT2=
EXTT3=
EXTT4=
EXTT5=
EXTT6=
EXTT7=
EXTT8=
EXTT9=
EXTT10=
EXTT11=
EXTT12=
EXTT13=
EXTT14=
EXTT15=
EXTT16=
EXTT17=
EXTT18=
EXTT19=
EXTT20=
EXTT21=
EXTT22=
EXTT23=
EXTT24=
EXTT25=
EXTT26=
EXTT27=
PLAYORDER=
